<?xml version="1.0" standalone="no"?><!DOCTYPE svg PUBLIC "-//W3C//DTD SVG 1.1//EN" "http://www.w3.org/Graphics/SVG/1.1/DTD/svg11.dtd"><svg t="1734961123426" class="icon" viewBox="0 0 1024 1024" version="1.1" xmlns="http://www.w3.org/2000/svg" p-id="2931" xmlns:xlink="http://www.w3.org/1999/xlink" width="200" height="200"><path d="M559.872 529.1392l293.3504 292.5696a58.4064 58.4064 0 0 1 0 82.752 58.7776 58.7776 0 0 1-82.9696 0L518.4 653.2608 266.5472 904.4608a58.7776 58.7776 0 0 1-82.9696 0 58.4064 58.4064 0 0 1 0-82.752L476.928 529.152a58.7776 58.7776 0 0 1 82.9696 0z m0-409.6l293.3504 292.5696a58.4064 58.4064 0 0 1 0 82.752 58.7776 58.7776 0 0 1-82.9696 0L518.4 243.6608 266.5472 494.8608a58.7776 58.7776 0 0 1-82.9696 0 58.4064 58.4064 0 0 1 0-82.752L476.928 119.552a58.7776 58.7776 0 0 1 82.9696 0z" fill="#0b94f7" p-id="2932"></path></svg>