<?xml version="1.0" standalone="no"?><!DOCTYPE svg PUBLIC "-//W3C//DTD SVG 1.1//EN" "http://www.w3.org/Graphics/SVG/1.1/DTD/svg11.dtd"><svg t="1734961148344" class="icon" viewBox="0 0 1024 1024" version="1.1" xmlns="http://www.w3.org/2000/svg" p-id="3207" xmlns:xlink="http://www.w3.org/1999/xlink" width="200" height="200"><path d="M266.5472 541.9392a58.7776 58.7776 0 0 0-82.9696 0 58.4064 58.4064 0 0 0 0 82.752L476.928 917.248a58.7776 58.7776 0 0 0 82.9696 0l293.3376-292.5696a58.4064 58.4064 0 0 0 0-82.752 58.7776 58.7776 0 0 0-82.9696 0L518.4 793.1392 266.5472 541.9392z m0-409.6a58.7776 58.7776 0 0 0-82.9696 0 58.4064 58.4064 0 0 0 0 82.752L476.928 507.648a58.7776 58.7776 0 0 0 82.9696 0l293.3376-292.5696a58.4064 58.4064 0 0 0 0-82.752 58.7776 58.7776 0 0 0-82.9696 0L518.4 383.5392 266.5472 132.3392z" fill="#0b94f7" p-id="3208"></path></svg>