<?xml version="1.0" standalone="no"?><!DOCTYPE svg PUBLIC "-//W3C//DTD SVG 1.1//EN" "http://www.w3.org/Graphics/SVG/1.1/DTD/svg11.dtd"><svg t="1734593743722" class="icon" viewBox="0 0 1024 1024" version="1.1" xmlns="http://www.w3.org/2000/svg" p-id="3207" xmlns:xlink="http://www.w3.org/1999/xlink" width="200" height="200"><path d="M780.3392 518.4L529.1392 770.2528a58.7776 58.7776 0 0 0 0 82.9696 58.4064 58.4064 0 0 0 82.752 0L904.448 559.872a58.7776 58.7776 0 0 0 0-82.9696L611.8912 183.5776a58.4064 58.4064 0 0 0-82.752 0 58.7776 58.7776 0 0 0 0 82.9696L780.3392 518.4zM119.5392 770.2528a58.7776 58.7776 0 0 0 0 82.9696 58.4064 58.4064 0 0 0 82.752 0L494.848 559.872a58.7776 58.7776 0 0 0 0-82.9696L202.2912 183.5776a58.4064 58.4064 0 0 0-82.752 0 58.7776 58.7776 0 0 0 0 82.9696L370.7392 518.4 119.5392 770.2528z" fill="#000000" p-id="3208"></path></svg>