<?xml version="1.0" standalone="no"?><!DOCTYPE svg PUBLIC "-//W3C//DTD SVG 1.1//EN" "http://www.w3.org/Graphics/SVG/1.1/DTD/svg11.dtd"><svg t="1735025023658" class="icon" viewBox="0 0 1024 1024" version="1.1" xmlns="http://www.w3.org/2000/svg" p-id="2931" xmlns:xlink="http://www.w3.org/1999/xlink" width="200" height="200"><path d="M241.0624 0h369.792c0.832 0 1.664 0.0256 2.5088 0.064L610.8416 0l1.8048 0.0384 2.7136 0.1792 1.472 0.1792 2.4576 0.384c3.6352 0.6656 7.1168 1.7664 10.3936 3.2512l2.9312 1.4592 3.0976 1.8176 1.4592 0.9728 2.112 1.5744 2.5856 2.176 1.664 1.6 277.3248 279.2704a46.4384 46.4384 0 0 1 5.3504 6.4512l1.7664 2.7776 0.9728 1.7408 0.2944 0.5888c1.4976 2.8928 2.688 5.9648 3.5584 9.1776l0.832 3.7376 0.3584 2.2528 0.2688 2.5216c0.0896 1.216 0.1408 2.432 0.1408 3.6736V884.352C934.4 961.4848 872.32 1024 795.7376 1024H241.0624C164.48 1024 102.4 961.4848 102.4 884.352V139.648C102.4 62.5024 164.48 0 241.0624 0z m323.5584 93.0816H241.0624c-25.5232 0-46.208 20.8512-46.208 46.5536v744.7296c0 25.7024 20.6848 46.5408 46.208 46.5408h554.6752c25.5232 0 46.208-20.8384 46.208-46.5408V372.352H610.8416c-24.704 0-44.8768-19.5072-46.1568-44.0576l-0.064-2.4704V93.0816z m138.6624 605.0944c25.536 0 46.2336 20.8512 46.2336 46.5536s-20.6976 46.5408-46.2336 46.5408H333.5168c-25.536 0-46.2336-20.8384-46.2336-46.5408s20.6976-46.5536 46.2336-46.5536h369.7664z m0-186.176c25.536 0 46.2336 20.8384 46.2336 46.5408 0 25.7152-20.6976 46.5536-46.2336 46.5536H333.5168c-25.536 0-46.2336-20.8384-46.2336-46.5536 0-25.7024 20.6976-46.5408 46.2336-46.5408h369.7664zM425.9584 325.824c25.5232 0 46.208 20.8384 46.208 46.5408s-20.6848 46.5408-46.208 46.5408h-92.4416c-25.536 0-46.2336-20.8384-46.2336-46.5408s20.6976-46.5408 46.2336-46.5408h92.4416z m231.104-166.912v120.3584h119.5264l-119.5264-120.3584z" fill="#1296db" p-id="2932"></path></svg>