<?xml version="1.0" standalone="no"?><!DOCTYPE svg PUBLIC "-//W3C//DTD SVG 1.1//EN" "http://www.w3.org/Graphics/SVG/1.1/DTD/svg11.dtd"><svg t="1735024976576" class="icon" viewBox="0 0 1024 1024" version="1.1" xmlns="http://www.w3.org/2000/svg" p-id="3461" xmlns:xlink="http://www.w3.org/1999/xlink" width="200" height="200"><path d="M845.44 51.2C922.8544 51.2 985.6 113.9456 985.6 191.36v654.08C985.6 922.8544 922.8544 985.6 845.44 985.6h-654.08C113.9456 985.6 51.2 922.8544 51.2 845.44v-654.08C51.2 113.9456 113.9456 51.2 191.36 51.2h654.08z m0 93.44h-654.08a46.72 46.72 0 0 0-46.72 46.72v654.08a46.72 46.72 0 0 0 46.72 46.72h654.08a46.72 46.72 0 0 0 46.72-46.72v-654.08a46.72 46.72 0 0 0-46.72-46.72zM518.4 284.8a46.72 46.72 0 0 1 46.72 46.72v140.1472l140.16 0.0128a46.72 46.72 0 0 1 46.656 44.2368l0.064 2.4832a46.72 46.72 0 0 1-46.72 46.72H565.12V705.28a46.72 46.72 0 0 1-44.2368 46.656l-2.4832 0.064a46.72 46.72 0 0 1-46.72-46.72l-0.0128-140.16H331.52a46.72 46.72 0 0 1-46.656-44.2368l-0.064-2.4832a46.72 46.72 0 0 1 46.72-46.72l140.1472-0.0128 0.0128-140.1472a46.72 46.72 0 0 1 44.2368-46.656l2.4832-0.064z" fill="#0b94f7" p-id="3462"></path></svg>