<?xml version="1.0" standalone="no"?><!DOCTYPE svg PUBLIC "-//W3C//DTD SVG 1.1//EN" "http://www.w3.org/Graphics/SVG/1.1/DTD/svg11.dtd"><svg t="1734773771879" class="icon" viewBox="0 0 1024 1024" version="1.1" xmlns="http://www.w3.org/2000/svg" p-id="1324" xmlns:xlink="http://www.w3.org/1999/xlink" width="200" height="200"><path d="M35.84 716.8c0-132.89984 107.74016-240.64 240.64-240.64h465.92c132.89984 0 240.64 107.74016 240.64 240.64v143.36a35.84 35.84 0 1 1-71.68 0v-143.36c0-93.312-75.648-168.96-168.96-168.96H276.48c-93.312 0-168.96 75.648-168.96 168.96v174.08a46.08 46.08 0 0 0 46.08 46.08h663.04a35.84 35.84 0 1 1 0 71.68H153.6c-65.03936 0-117.76-52.72064-117.76-117.76v-174.08z" fill="#000000" p-id="1325"></path><path d="M583.6544 867.71712h-138.4448A37.09952 37.09952 0 0 1 409.6 830.65856 37.08928 37.08928 0 0 1 445.2096 793.6h138.4448a37.09952 37.09952 0 0 1 35.6096 37.05856 37.09952 37.09952 0 0 1-35.6096 37.05856z" fill="#4D6EE7" p-id="1326"></path><path d="M509.44 87.04C431.67744 87.04 368.64 150.07744 368.64 227.84S431.67744 368.64 509.44 368.64 650.24 305.60256 650.24 227.84 587.20256 87.04 509.44 87.04zM296.96 227.84C296.96 110.4896 392.0896 15.36 509.44 15.36S721.92 110.4896 721.92 227.84 626.7904 440.32 509.44 440.32 296.96 345.1904 296.96 227.84z" fill="#000000" p-id="1327"></path></svg>