<?xml version="1.0" standalone="no"?><!DOCTYPE svg PUBLIC "-//W3C//DTD SVG 1.1//EN" "http://www.w3.org/Graphics/SVG/1.1/DTD/svg11.dtd"><svg t="1734853571991" class="icon" viewBox="0 0 1308 1024" version="1.1" xmlns="http://www.w3.org/2000/svg" p-id="18449" xmlns:xlink="http://www.w3.org/1999/xlink" width="255.46875" height="200"><path d="M1202.49068 219.244332h-157.855919a19.603023 19.603023 0 0 1-17.539547-11.349118l-56.745592-141.348111A106.269018 106.269018 0 0 0 871.81864 0h-412.695214a106.269018 106.269018 0 0 0-96.983376 62.93602L295.077078 206.347607a18.571285 18.571285 0 0 1-17.023677 10.833249H113.491184A106.784887 106.784887 0 0 0 7.222166 323.965743v593.24937a106.784887 106.784887 0 0 0 106.269018 106.784887h1088.999496a106.784887 106.784887 0 0 0 106.269018-106.784887V326.029219a106.784887 106.784887 0 0 0-106.269018-106.784887z m18.571285 697.970781a18.571285 18.571285 0 0 1-18.571285 18.571285H113.491184a18.571285 18.571285 0 0 1-18.571285-18.571285V326.029219A19.087154 19.087154 0 0 1 113.491184 309.521411h164.562217a103.173804 103.173804 0 0 0 96.983375-62.936021l64.999496-147.538539a19.087154 19.087154 0 0 1 17.023678-11.349118h412.695214a18.055416 18.055416 0 0 1 17.023677 11.864987l57.261461 140.832242A103.173804 103.173804 0 0 0 1044.634761 309.521411h157.855919a19.087154 19.087154 0 0 1 18.571285 19.087153z" p-id="18450" fill="#ffffff"></path><path d="M657.732997 285.275567a278.053401 278.053401 0 1 0 278.053401 278.0534 277.537531 277.537531 0 0 0-278.053401-278.0534z m0 467.893199a190.355668 190.355668 0 1 1 190.355668-189.839799 189.839798 189.839798 0 0 1-190.355668 189.839799zM43.848866 131.546599h175.395466a43.848866 43.848866 0 0 0 0-87.697733H43.848866a43.848866 43.848866 0 0 0 0 87.697733z" p-id="18451" fill="#ffffff"></path></svg>