<?xml version="1.0" standalone="no"?><!DOCTYPE svg PUBLIC "-//W3C//DTD SVG 1.1//EN" "http://www.w3.org/Graphics/SVG/1.1/DTD/svg11.dtd"><svg t="1734773884487" class="icon" viewBox="0 0 1024 1024" version="1.1" xmlns="http://www.w3.org/2000/svg" p-id="2003" xmlns:xlink="http://www.w3.org/1999/xlink" width="200" height="200"><path d="M76.8 122.88c0-59.38176 48.13824-107.52 107.52-107.52h399.36c59.38176 0 107.52 48.13824 107.52 107.52v814.08h168.96V460.8a35.84 35.84 0 0 0-35.84-35.84h-4.14208a35.84 35.84 0 0 1 0-71.68H824.32c59.38176 0 107.52 48.13824 107.52 107.52v476.16h51.2a35.84 35.84 0 1 1 0 71.68H40.96a35.84 35.84 0 1 1 0-71.68h35.84V122.88z m71.68 814.08h471.04V122.88a35.84 35.84 0 0 0-35.84-35.84H184.32a35.84 35.84 0 0 0-35.84 35.84v814.08z" fill="#000000" p-id="2004"></path><path d="M455.6544 284.03712h-138.4448a37.08416 37.08416 0 0 1 0-74.11712h138.4448a37.08928 37.08928 0 0 1 0 74.11712z" fill="#4D6EE7" p-id="2005"></path></svg>