<?xml version="1.0" standalone="no"?><!DOCTYPE svg PUBLIC "-//W3C//DTD SVG 1.1//EN" "http://www.w3.org/Graphics/SVG/1.1/DTD/svg11.dtd"><svg t="1734773798256" class="icon" viewBox="0 0 1024 1024" version="1.1" xmlns="http://www.w3.org/2000/svg" p-id="1663" xmlns:xlink="http://www.w3.org/1999/xlink" width="200" height="200"><path d="M588.7744 763.29984h-138.4448a37.07904 37.07904 0 0 1 0-74.112h138.4448a37.08928 37.08928 0 0 1 0 74.112z" fill="#4D6EE7" p-id="1664"></path><path d="M475.72992 49.19808a35.84 35.84 0 0 1-29.88032 40.93952C242.57536 121.88672 87.04 297.8048 87.04 509.98784c0 234.69568 190.2592 424.96 424.96 424.96 214.64064 0 392.1664-159.16544 420.89472-365.89568a35.84 35.84 0 1 1 70.99392 9.86624c-33.57696 241.67424-240.97792 427.70944-491.88864 427.70944-274.28864 0-496.64-222.35648-496.64-496.64C15.36 261.9392 197.16096 56.43264 434.7904 19.31776a35.84 35.84 0 0 1 40.93952 29.88032z" fill="#000000" p-id="1665"></path><path d="M517.2736 47.87712a35.84 35.84 0 0 1 39.00928-32.3584C790.9376 37.376 978.3808 221.53216 1005.31712 454.67136a35.84 35.84 0 0 1-36.70016 39.94112c-0.3072 0.01024-0.62464 0.01024-0.93696 0.01024h-414.72a35.84 35.84 0 0 1-35.74784-38.4 35.31776 35.31776 0 0 1-0.09216-2.56v-394.24c0-1.3824 0.0768-2.74944 0.2304-4.096a36.18816 36.18816 0 0 1-0.0768-7.4496z m71.5264 44.4928v330.57792h338.75968c-35.72736-167.58784-169.728-298.8544-338.75968-330.57792z" fill="#000000" p-id="1666"></path></svg>