<?xml version="1.0" standalone="no"?><!DOCTYPE svg PUBLIC "-//W3C//DTD SVG 1.1//EN" "http://www.w3.org/Graphics/SVG/1.1/DTD/svg11.dtd"><svg t="1734773863962" class="icon" viewBox="0 0 1024 1024" version="1.1" xmlns="http://www.w3.org/2000/svg" p-id="1833" xmlns:xlink="http://www.w3.org/1999/xlink" width="200" height="200"><path d="M35.84 230.4c0-70.69184 57.30816-128 128-128h701.44c70.69184 0 128 57.30816 128 128v606.72a35.84 35.84 0 1 1-71.68 0V230.4c0-31.104-25.216-56.32-56.32-56.32H163.84c-31.104 0-56.32 25.216-56.32 56.32v650.24c0 31.104 25.216 56.32 56.32 56.32h624.64a35.84 35.84 0 1 1 0 71.68H163.84c-70.69184 0-128-57.30816-128-128V230.4z" fill="#000000" p-id="1834"></path><path d="M593.8944 775.55712h-138.4448A37.09952 37.09952 0 0 1 419.84 738.49856 37.08928 37.08928 0 0 1 455.4496 701.44h138.4448a37.09952 37.09952 0 0 1 35.6096 37.05856 37.09952 37.09952 0 0 1-35.6096 37.05856z" fill="#4D6EE7" p-id="1835"></path><path d="M317.44 20.48a35.84 35.84 0 0 1 35.84 35.84v143.36a35.84 35.84 0 1 1-71.68 0V56.32a35.84 35.84 0 0 1 35.84-35.84zM711.68 20.48a35.84 35.84 0 0 1 35.84 35.84v143.36a35.84 35.84 0 1 1-71.68 0V56.32a35.84 35.84 0 0 1 35.84-35.84z" fill="#000000" p-id="1836"></path></svg>