<?xml version="1.0" standalone="no"?><!DOCTYPE svg PUBLIC "-//W3C//DTD SVG 1.1//EN" "http://www.w3.org/Graphics/SVG/1.1/DTD/svg11.dtd"><svg t="1734773733213" class="icon" viewBox="0 0 1024 1024" version="1.1" xmlns="http://www.w3.org/2000/svg" p-id="984" xmlns:xlink="http://www.w3.org/1999/xlink" width="200" height="200"><path d="M583.6544 550.27712h-138.4448A37.09952 37.09952 0 0 1 409.6 513.21856 37.08928 37.08928 0 0 1 445.2096 476.16h138.4448a37.08416 37.08416 0 0 1 0 74.11712z" fill="#4D6EE7" p-id="985"></path><path d="M87.04 512c0-234.7008 190.2592-424.96 424.96-424.96s424.96 190.2592 424.96 424.96c0 69.53472-16.67584 135.10656-46.24896 193.00352l-52.33152-75.22816a35.84 35.84 0 1 0-58.84416 40.92928l81.92 117.76512c1.65376 2.37568 3.54304 4.49024 5.61664 6.33344a35.84 35.84 0 0 0 56.05376-4.10624C977.1008 711.2192 1008.64 615.23968 1008.64 512c0-274.28864-222.35136-496.64-496.64-496.64S15.36 237.71136 15.36 512s222.35136 496.64 496.64 496.64a496.2304 496.2304 0 0 0 155.49952-24.83712 35.84 35.84 0 0 0-22.43072-68.08576A424.3968 424.3968 0 0 1 512 936.96c-234.7008 0-424.96-190.2592-424.96-424.96z" fill="#000000" p-id="986"></path></svg>