<?xml version="1.0" standalone="no"?><!DOCTYPE svg PUBLIC "-//W3C//DTD SVG 1.1//EN" "http://www.w3.org/Graphics/SVG/1.1/DTD/svg11.dtd"><svg t="1734773785274" class="icon" viewBox="0 0 1024 1024" version="1.1" xmlns="http://www.w3.org/2000/svg" p-id="1494" xmlns:xlink="http://www.w3.org/1999/xlink" width="200" height="200"><path d="M452.34176 47.70304a117.76 117.76 0 0 1 124.43648 0l288.32256 179.42528a117.75488 117.75488 0 0 1 55.54176 99.97824v369.78688a117.74464 117.74464 0 0 1-55.54176 99.97824l-21.84704 13.5936a35.84 35.84 0 1 1-37.86752-60.85632l21.84192-13.5936a46.08 46.08 0 0 0 21.7344-39.12192V327.10656a46.08 46.08 0 0 0-21.7344-39.12192l-288.32256-179.42016a46.08 46.08 0 0 0-48.6912 0L201.89184 287.98464a46.08 46.08 0 0 0-21.7344 39.12192v369.78688a46.08 46.08 0 0 0 21.7344 39.12192l288.32256 179.42016a46.06976 46.06976 0 0 0 48.6912 0l84.72064-52.72064a35.84 35.84 0 0 1 37.87264 60.86144l-84.72064 52.72064a117.77536 117.77536 0 0 1-124.43648 0l-288.32256-179.42528a117.75488 117.75488 0 0 1-55.54176-99.97824V327.10656a117.76 117.76 0 0 1 55.54176-99.97824L452.34176 47.70304z" fill="#000000" p-id="1495"></path><path d="M583.6544 550.27712h-138.4448A37.09952 37.09952 0 0 1 409.6 513.21856 37.08928 37.08928 0 0 1 445.2096 476.16h138.4448a37.08416 37.08416 0 0 1 0 74.11712z" fill="#4D6EE7" p-id="1496"></path></svg>