<?xml version="1.0" standalone="no"?><!DOCTYPE svg PUBLIC "-//W3C//DTD SVG 1.1//EN" "http://www.w3.org/Graphics/SVG/1.1/DTD/svg11.dtd"><svg t="1734773754126" class="icon" viewBox="0 0 1024 1024" version="1.1" xmlns="http://www.w3.org/2000/svg" p-id="1153" xmlns:xlink="http://www.w3.org/1999/xlink" width="200" height="200"><path d="M535.72608 29.35808c11.35104 16.22016 8.1152 39.5008-7.22944 52.00384L68.8896 455.92064c-15.34464 12.50304-36.98688 9.4976-48.3328-6.72256-11.35616-16.21504-8.12032-39.49568 7.22432-51.99872L487.38816 22.64064c15.34464-12.50304 36.98688-9.4976 48.33792 6.71744z" fill="#000000" p-id="1154"></path><path d="M483.6608 29.35808c-11.35616 16.22016-8.1152 39.5008 7.22432 52.00384l459.61216 374.55872c15.33952 12.50304 36.98176 9.4976 48.3328-6.72256 11.35104-16.21504 8.1152-39.49568-7.22432-51.99872L531.9936 22.64064c-15.34464-12.50304-36.98176-9.4976-48.3328 6.71744z" fill="#000000" p-id="1155"></path><path d="M583.6544 790.91712h-138.4448A37.09952 37.09952 0 0 1 409.6 753.85856 37.08928 37.08928 0 0 1 445.2096 716.8h138.4448a37.09952 37.09952 0 0 1 35.6096 37.05856 37.09952 37.09952 0 0 1-35.6096 37.05856z" fill="#4D6EE7" p-id="1156"></path><path d="M158.72 378.88v496.64c0 31.104 25.216 56.32 56.32 56.32h545.28v0.09216a35.84 35.84 0 0 1 0 71.49568V1003.52H215.04c-70.69184 0-128-57.30816-128-128V378.88h71.68z m706.56 471.04V378.88h71.68v473.6h-0.09216a35.84 35.84 0 0 1-71.49568 0H865.28v-2.56z" fill="#000000" p-id="1157"></path></svg>